<svg xmlns="http://www.w3.org/2000/svg" xmlns:xlink="http://www.w3.org/1999/xlink" id="Layer_1" x="0" y="0" version="1.1" viewBox="0 0 1080 1080" style="enable-background:new 0 0 1080 1080" xml:space="preserve"><style type="text/css">.st0{fill:#112455}.st1{fill:#17e7d6}</style><path d="M540.37,1080.31L540.37,1080.31c-298.23,0-540-241.77-540-540v0c0-298.23,241.77-540,540-540h0	c298.23,0,540,241.77,540,540v0C1080.37,838.54,838.6,1080.31,540.37,1080.31z" class="st0"/><path d="M688.11,696.8L561.82,823.09c-11.84,11.84-31.05,11.84-42.89,0L392.63,696.8c-7.75-7.75-10.71-19.08-7.76-29.63	l75.34-268.85V639.7c0,3.73,5.42,4.17,6.03,0.49l74.13-449.55l74.1,449.54c0.61,3.68,6.03,3.23,6.03-0.49V398.33l75.37,268.84	C698.82,677.72,695.86,689.05,688.11,696.8z" class="st1"/></svg>